<mxfile host="app.diagrams.net" agent="Mozilla/5.0 (Windows NT 10.0; Win64; x64) AppleWebKit/537.36 (KHTML, like Gecko) Chrome/132.0.0.0 Safari/537.36 OPR/117.0.0.0" version="26.2.14">
  <diagram name="PÃ¡gina-1" id="m0NkqbJBFvZgpGGLdnBK">
    <mxGraphModel>
      <root>
        <mxCell id="0" />
        <mxCell id="1" parent="0" />
        <mxCell id="2" value="HUESPED" style="shape=table;startSize=25;container=1;collapsible=0;childLayout=tableLayout;fixedRows=1;rowLines=1;fontStyle=1;align=center;resizeLast=1;" vertex="1" parent="1">
          <mxGeometry x="301" y="20" width="154" height="178" as="geometry" />
        </mxCell>
        <mxCell id="3" style="shape=tableRow;horizontal=0;startSize=0;swimlaneHead=0;swimlaneBody=0;fillColor=none;collapsible=0;dropTarget=0;points=[[0,0.5],[1,0.5]];portConstraint=eastwest;top=0;left=0;right=0;bottom=0;" vertex="1" parent="2">
          <mxGeometry y="22" width="151" height="22" as="geometry" />
        </mxCell>
        <mxCell id="4" value="string" style="shape=partialRectangle;connectable=0;fillColor=none;top=0;left=0;bottom=0;right=0;align=left;spacingLeft=2;overflow=hidden;fontSize=11;" vertex="1" parent="3">
          <mxGeometry width="36" height="22" as="geometry" />
        </mxCell>
        <mxCell id="5" value="DNI" style="shape=partialRectangle;connectable=0;fillColor=none;top=0;left=0;bottom=0;right=0;align=left;spacingLeft=2;overflow=hidden;fontSize=11;" vertex="1" parent="3">
          <mxGeometry width="96" height="22" as="geometry" />
        </mxCell>
        <mxCell id="6" value="PK" style="shape=partialRectangle;connectable=0;fillColor=none;top=0;left=0;bottom=0;right=0;align=left;spacingLeft=2;overflow=hidden;fontSize=11;" vertex="1" parent="3">
          <mxGeometry width="22" height="22" as="geometry" />
        </mxCell>
        <mxCell id="7" style="shape=tableRow;horizontal=0;startSize=0;swimlaneHead=0;swimlaneBody=0;fillColor=none;collapsible=0;dropTarget=0;points=[[0,0.5],[1,0.5]];portConstraint=eastwest;top=0;left=0;right=0;bottom=0;" vertex="1" parent="2">
          <mxGeometry y="44" width="151" height="22" as="geometry" />
        </mxCell>
        <mxCell id="8" value="string" style="shape=partialRectangle;connectable=0;fillColor=none;top=0;left=0;bottom=0;right=0;align=left;spacingLeft=2;overflow=hidden;fontSize=11;" vertex="1" parent="7">
          <mxGeometry width="36" height="22" as="geometry" />
        </mxCell>
        <mxCell id="9" value="nombre" style="shape=partialRectangle;connectable=0;fillColor=none;top=0;left=0;bottom=0;right=0;align=left;spacingLeft=2;overflow=hidden;fontSize=11;" vertex="1" parent="7">
          <mxGeometry width="96" height="22" as="geometry" />
        </mxCell>
        <mxCell id="10" value="" style="shape=partialRectangle;connectable=0;fillColor=none;top=0;left=0;bottom=0;right=0;align=left;spacingLeft=2;overflow=hidden;fontSize=11;" vertex="1" parent="7">
          <mxGeometry width="22" height="22" as="geometry" />
        </mxCell>
        <mxCell id="11" style="shape=tableRow;horizontal=0;startSize=0;swimlaneHead=0;swimlaneBody=0;fillColor=none;collapsible=0;dropTarget=0;points=[[0,0.5],[1,0.5]];portConstraint=eastwest;top=0;left=0;right=0;bottom=0;" vertex="1" parent="2">
          <mxGeometry y="66" width="151" height="22" as="geometry" />
        </mxCell>
        <mxCell id="12" value="string" style="shape=partialRectangle;connectable=0;fillColor=none;top=0;left=0;bottom=0;right=0;align=left;spacingLeft=2;overflow=hidden;fontSize=11;" vertex="1" parent="11">
          <mxGeometry width="36" height="22" as="geometry" />
        </mxCell>
        <mxCell id="13" value="apellidos" style="shape=partialRectangle;connectable=0;fillColor=none;top=0;left=0;bottom=0;right=0;align=left;spacingLeft=2;overflow=hidden;fontSize=11;" vertex="1" parent="11">
          <mxGeometry width="96" height="22" as="geometry" />
        </mxCell>
        <mxCell id="14" value="" style="shape=partialRectangle;connectable=0;fillColor=none;top=0;left=0;bottom=0;right=0;align=left;spacingLeft=2;overflow=hidden;fontSize=11;" vertex="1" parent="11">
          <mxGeometry width="22" height="22" as="geometry" />
        </mxCell>
        <mxCell id="15" style="shape=tableRow;horizontal=0;startSize=0;swimlaneHead=0;swimlaneBody=0;fillColor=none;collapsible=0;dropTarget=0;points=[[0,0.5],[1,0.5]];portConstraint=eastwest;top=0;left=0;right=0;bottom=0;" vertex="1" parent="2">
          <mxGeometry y="87" width="151" height="22" as="geometry" />
        </mxCell>
        <mxCell id="16" value="string" style="shape=partialRectangle;connectable=0;fillColor=none;top=0;left=0;bottom=0;right=0;align=left;spacingLeft=2;overflow=hidden;fontSize=11;" vertex="1" parent="15">
          <mxGeometry width="36" height="22" as="geometry" />
        </mxCell>
        <mxCell id="17" value="correo" style="shape=partialRectangle;connectable=0;fillColor=none;top=0;left=0;bottom=0;right=0;align=left;spacingLeft=2;overflow=hidden;fontSize=11;" vertex="1" parent="15">
          <mxGeometry width="96" height="22" as="geometry" />
        </mxCell>
        <mxCell id="18" value="" style="shape=partialRectangle;connectable=0;fillColor=none;top=0;left=0;bottom=0;right=0;align=left;spacingLeft=2;overflow=hidden;fontSize=11;" vertex="1" parent="15">
          <mxGeometry width="22" height="22" as="geometry" />
        </mxCell>
        <mxCell id="19" style="shape=tableRow;horizontal=0;startSize=0;swimlaneHead=0;swimlaneBody=0;fillColor=none;collapsible=0;dropTarget=0;points=[[0,0.5],[1,0.5]];portConstraint=eastwest;top=0;left=0;right=0;bottom=0;" vertex="1" parent="2">
          <mxGeometry y="109" width="151" height="22" as="geometry" />
        </mxCell>
        <mxCell id="20" value="date" style="shape=partialRectangle;connectable=0;fillColor=none;top=0;left=0;bottom=0;right=0;align=left;spacingLeft=2;overflow=hidden;fontSize=11;" vertex="1" parent="19">
          <mxGeometry width="36" height="22" as="geometry" />
        </mxCell>
        <mxCell id="21" value="fecha_nacimiento" style="shape=partialRectangle;connectable=0;fillColor=none;top=0;left=0;bottom=0;right=0;align=left;spacingLeft=2;overflow=hidden;fontSize=11;" vertex="1" parent="19">
          <mxGeometry width="96" height="22" as="geometry" />
        </mxCell>
        <mxCell id="22" value="" style="shape=partialRectangle;connectable=0;fillColor=none;top=0;left=0;bottom=0;right=0;align=left;spacingLeft=2;overflow=hidden;fontSize=11;" vertex="1" parent="19">
          <mxGeometry width="22" height="22" as="geometry" />
        </mxCell>
        <mxCell id="23" style="shape=tableRow;horizontal=0;startSize=0;swimlaneHead=0;swimlaneBody=0;fillColor=none;collapsible=0;dropTarget=0;points=[[0,0.5],[1,0.5]];portConstraint=eastwest;top=0;left=0;right=0;bottom=0;" vertex="1" parent="2">
          <mxGeometry y="131" width="151" height="22" as="geometry" />
        </mxCell>
        <mxCell id="24" value="int" style="shape=partialRectangle;connectable=0;fillColor=none;top=0;left=0;bottom=0;right=0;align=left;spacingLeft=2;overflow=hidden;fontSize=11;" vertex="1" parent="23">
          <mxGeometry width="36" height="22" as="geometry" />
        </mxCell>
        <mxCell id="25" value="edad" style="shape=partialRectangle;connectable=0;fillColor=none;top=0;left=0;bottom=0;right=0;align=left;spacingLeft=2;overflow=hidden;fontSize=11;" vertex="1" parent="23">
          <mxGeometry width="96" height="22" as="geometry" />
        </mxCell>
        <mxCell id="26" value="" style="shape=partialRectangle;connectable=0;fillColor=none;top=0;left=0;bottom=0;right=0;align=left;spacingLeft=2;overflow=hidden;fontSize=11;" vertex="1" parent="23">
          <mxGeometry width="22" height="22" as="geometry" />
        </mxCell>
        <mxCell id="27" style="shape=tableRow;horizontal=0;startSize=0;swimlaneHead=0;swimlaneBody=0;fillColor=none;collapsible=0;dropTarget=0;points=[[0,0.5],[1,0.5]];portConstraint=eastwest;top=0;left=0;right=0;bottom=0;" vertex="1" parent="2">
          <mxGeometry y="153" width="151" height="22" as="geometry" />
        </mxCell>
        <mxCell id="28" value="string" style="shape=partialRectangle;connectable=0;fillColor=none;top=0;left=0;bottom=0;right=0;align=left;spacingLeft=2;overflow=hidden;fontSize=11;" vertex="1" parent="27">
          <mxGeometry width="36" height="22" as="geometry" />
        </mxCell>
        <mxCell id="29" value="telefono" style="shape=partialRectangle;connectable=0;fillColor=none;top=0;left=0;bottom=0;right=0;align=left;spacingLeft=2;overflow=hidden;fontSize=11;" vertex="1" parent="27">
          <mxGeometry width="96" height="22" as="geometry" />
        </mxCell>
        <mxCell id="30" value="" style="shape=partialRectangle;connectable=0;fillColor=none;top=0;left=0;bottom=0;right=0;align=left;spacingLeft=2;overflow=hidden;fontSize=11;" vertex="1" parent="27">
          <mxGeometry width="22" height="22" as="geometry" />
        </mxCell>
        <mxCell id="31" value="RESERVA" style="shape=table;startSize=25;container=1;collapsible=0;childLayout=tableLayout;fixedRows=1;rowLines=1;fontStyle=1;align=center;resizeLast=1;" vertex="1" parent="1">
          <mxGeometry x="20" y="298" width="136" height="134" as="geometry" />
        </mxCell>
        <mxCell id="32" style="shape=tableRow;horizontal=0;startSize=0;swimlaneHead=0;swimlaneBody=0;fillColor=none;collapsible=0;dropTarget=0;points=[[0,0.5],[1,0.5]];portConstraint=eastwest;top=0;left=0;right=0;bottom=0;" vertex="1" parent="31">
          <mxGeometry y="22" width="136" height="22" as="geometry" />
        </mxCell>
        <mxCell id="33" value="int" style="shape=partialRectangle;connectable=0;fillColor=none;top=0;left=0;bottom=0;right=0;align=left;spacingLeft=2;overflow=hidden;fontSize=11;" vertex="1" parent="32">
          <mxGeometry width="36" height="22" as="geometry" />
        </mxCell>
        <mxCell id="34" value="id_reserva" style="shape=partialRectangle;connectable=0;fillColor=none;top=0;left=0;bottom=0;right=0;align=left;spacingLeft=2;overflow=hidden;fontSize=11;" vertex="1" parent="32">
          <mxGeometry width="78" height="22" as="geometry" />
        </mxCell>
        <mxCell id="35" value="PK" style="shape=partialRectangle;connectable=0;fillColor=none;top=0;left=0;bottom=0;right=0;align=left;spacingLeft=2;overflow=hidden;fontSize=11;" vertex="1" parent="32">
          <mxGeometry width="22" height="22" as="geometry" />
        </mxCell>
        <mxCell id="36" style="shape=tableRow;horizontal=0;startSize=0;swimlaneHead=0;swimlaneBody=0;fillColor=none;collapsible=0;dropTarget=0;points=[[0,0.5],[1,0.5]];portConstraint=eastwest;top=0;left=0;right=0;bottom=0;" vertex="1" parent="31">
          <mxGeometry y="44" width="136" height="22" as="geometry" />
        </mxCell>
        <mxCell id="37" value="date" style="shape=partialRectangle;connectable=0;fillColor=none;top=0;left=0;bottom=0;right=0;align=left;spacingLeft=2;overflow=hidden;fontSize=11;" vertex="1" parent="36">
          <mxGeometry width="36" height="22" as="geometry" />
        </mxCell>
        <mxCell id="38" value="fecha_entrada" style="shape=partialRectangle;connectable=0;fillColor=none;top=0;left=0;bottom=0;right=0;align=left;spacingLeft=2;overflow=hidden;fontSize=11;" vertex="1" parent="36">
          <mxGeometry width="78" height="22" as="geometry" />
        </mxCell>
        <mxCell id="39" value="" style="shape=partialRectangle;connectable=0;fillColor=none;top=0;left=0;bottom=0;right=0;align=left;spacingLeft=2;overflow=hidden;fontSize=11;" vertex="1" parent="36">
          <mxGeometry width="22" height="22" as="geometry" />
        </mxCell>
        <mxCell id="40" style="shape=tableRow;horizontal=0;startSize=0;swimlaneHead=0;swimlaneBody=0;fillColor=none;collapsible=0;dropTarget=0;points=[[0,0.5],[1,0.5]];portConstraint=eastwest;top=0;left=0;right=0;bottom=0;" vertex="1" parent="31">
          <mxGeometry y="65" width="136" height="22" as="geometry" />
        </mxCell>
        <mxCell id="41" value="date" style="shape=partialRectangle;connectable=0;fillColor=none;top=0;left=0;bottom=0;right=0;align=left;spacingLeft=2;overflow=hidden;fontSize=11;" vertex="1" parent="40">
          <mxGeometry width="36" height="22" as="geometry" />
        </mxCell>
        <mxCell id="42" value="fecha_salida" style="shape=partialRectangle;connectable=0;fillColor=none;top=0;left=0;bottom=0;right=0;align=left;spacingLeft=2;overflow=hidden;fontSize=11;" vertex="1" parent="40">
          <mxGeometry width="78" height="22" as="geometry" />
        </mxCell>
        <mxCell id="43" value="" style="shape=partialRectangle;connectable=0;fillColor=none;top=0;left=0;bottom=0;right=0;align=left;spacingLeft=2;overflow=hidden;fontSize=11;" vertex="1" parent="40">
          <mxGeometry width="22" height="22" as="geometry" />
        </mxCell>
        <mxCell id="44" style="shape=tableRow;horizontal=0;startSize=0;swimlaneHead=0;swimlaneBody=0;fillColor=none;collapsible=0;dropTarget=0;points=[[0,0.5],[1,0.5]];portConstraint=eastwest;top=0;left=0;right=0;bottom=0;" vertex="1" parent="31">
          <mxGeometry y="87" width="136" height="22" as="geometry" />
        </mxCell>
        <mxCell id="45" value="string" style="shape=partialRectangle;connectable=0;fillColor=none;top=0;left=0;bottom=0;right=0;align=left;spacingLeft=2;overflow=hidden;fontSize=11;" vertex="1" parent="44">
          <mxGeometry width="36" height="22" as="geometry" />
        </mxCell>
        <mxCell id="46" value="estado" style="shape=partialRectangle;connectable=0;fillColor=none;top=0;left=0;bottom=0;right=0;align=left;spacingLeft=2;overflow=hidden;fontSize=11;" vertex="1" parent="44">
          <mxGeometry width="78" height="22" as="geometry" />
        </mxCell>
        <mxCell id="47" value="" style="shape=partialRectangle;connectable=0;fillColor=none;top=0;left=0;bottom=0;right=0;align=left;spacingLeft=2;overflow=hidden;fontSize=11;" vertex="1" parent="44">
          <mxGeometry width="22" height="22" as="geometry" />
        </mxCell>
        <mxCell id="48" style="shape=tableRow;horizontal=0;startSize=0;swimlaneHead=0;swimlaneBody=0;fillColor=none;collapsible=0;dropTarget=0;points=[[0,0.5],[1,0.5]];portConstraint=eastwest;top=0;left=0;right=0;bottom=0;" vertex="1" parent="31">
          <mxGeometry y="109" width="136" height="22" as="geometry" />
        </mxCell>
        <mxCell id="49" value="string" style="shape=partialRectangle;connectable=0;fillColor=none;top=0;left=0;bottom=0;right=0;align=left;spacingLeft=2;overflow=hidden;fontSize=11;" vertex="1" parent="48">
          <mxGeometry width="36" height="22" as="geometry" />
        </mxCell>
        <mxCell id="50" value="DNI" style="shape=partialRectangle;connectable=0;fillColor=none;top=0;left=0;bottom=0;right=0;align=left;spacingLeft=2;overflow=hidden;fontSize=11;" vertex="1" parent="48">
          <mxGeometry width="78" height="22" as="geometry" />
        </mxCell>
        <mxCell id="51" value="FK" style="shape=partialRectangle;connectable=0;fillColor=none;top=0;left=0;bottom=0;right=0;align=left;spacingLeft=2;overflow=hidden;fontSize=11;" vertex="1" parent="48">
          <mxGeometry width="22" height="22" as="geometry" />
        </mxCell>
        <mxCell id="52" value="HABITACION" style="shape=table;startSize=25;container=1;collapsible=0;childLayout=tableLayout;fixedRows=1;rowLines=1;fontStyle=1;align=center;resizeLast=1;" vertex="1" parent="1">
          <mxGeometry x="256" y="331" width="160" height="68" as="geometry" />
        </mxCell>
        <mxCell id="53" style="shape=tableRow;horizontal=0;startSize=0;swimlaneHead=0;swimlaneBody=0;fillColor=none;collapsible=0;dropTarget=0;points=[[0,0.5],[1,0.5]];portConstraint=eastwest;top=0;left=0;right=0;bottom=0;" vertex="1" parent="52">
          <mxGeometry y="22" width="158" height="22" as="geometry" />
        </mxCell>
        <mxCell id="54" value="int" style="shape=partialRectangle;connectable=0;fillColor=none;top=0;left=0;bottom=0;right=0;align=left;spacingLeft=2;overflow=hidden;fontSize=11;" vertex="1" parent="53">
          <mxGeometry width="36" height="22" as="geometry" />
        </mxCell>
        <mxCell id="55" value="numero_habitacion" style="shape=partialRectangle;connectable=0;fillColor=none;top=0;left=0;bottom=0;right=0;align=left;spacingLeft=2;overflow=hidden;fontSize=11;" vertex="1" parent="53">
          <mxGeometry width="102" height="22" as="geometry" />
        </mxCell>
        <mxCell id="56" value="PK" style="shape=partialRectangle;connectable=0;fillColor=none;top=0;left=0;bottom=0;right=0;align=left;spacingLeft=2;overflow=hidden;fontSize=11;" vertex="1" parent="53">
          <mxGeometry width="22" height="22" as="geometry" />
        </mxCell>
        <mxCell id="57" style="shape=tableRow;horizontal=0;startSize=0;swimlaneHead=0;swimlaneBody=0;fillColor=none;collapsible=0;dropTarget=0;points=[[0,0.5],[1,0.5]];portConstraint=eastwest;top=0;left=0;right=0;bottom=0;" vertex="1" parent="52">
          <mxGeometry y="43" width="158" height="22" as="geometry" />
        </mxCell>
        <mxCell id="58" value="string" style="shape=partialRectangle;connectable=0;fillColor=none;top=0;left=0;bottom=0;right=0;align=left;spacingLeft=2;overflow=hidden;fontSize=11;" vertex="1" parent="57">
          <mxGeometry width="36" height="22" as="geometry" />
        </mxCell>
        <mxCell id="59" value="tipo" style="shape=partialRectangle;connectable=0;fillColor=none;top=0;left=0;bottom=0;right=0;align=left;spacingLeft=2;overflow=hidden;fontSize=11;" vertex="1" parent="57">
          <mxGeometry width="102" height="22" as="geometry" />
        </mxCell>
        <mxCell id="60" value="" style="shape=partialRectangle;connectable=0;fillColor=none;top=0;left=0;bottom=0;right=0;align=left;spacingLeft=2;overflow=hidden;fontSize=11;" vertex="1" parent="57">
          <mxGeometry width="22" height="22" as="geometry" />
        </mxCell>
        <mxCell id="61" value="SERVICIO" style="shape=table;startSize=25;container=1;collapsible=0;childLayout=tableLayout;fixedRows=1;rowLines=1;fontStyle=1;align=center;resizeLast=1;" vertex="1" parent="1">
          <mxGeometry x="514" y="320" width="104" height="90" as="geometry" />
        </mxCell>
        <mxCell id="62" style="shape=tableRow;horizontal=0;startSize=0;swimlaneHead=0;swimlaneBody=0;fillColor=none;collapsible=0;dropTarget=0;points=[[0,0.5],[1,0.5]];portConstraint=eastwest;top=0;left=0;right=0;bottom=0;" vertex="1" parent="61">
          <mxGeometry y="22" width="104" height="22" as="geometry" />
        </mxCell>
        <mxCell id="63" value="int" style="shape=partialRectangle;connectable=0;fillColor=none;top=0;left=0;bottom=0;right=0;align=left;spacingLeft=2;overflow=hidden;fontSize=11;" vertex="1" parent="62">
          <mxGeometry width="36" height="22" as="geometry" />
        </mxCell>
        <mxCell id="64" value="codigo" style="shape=partialRectangle;connectable=0;fillColor=none;top=0;left=0;bottom=0;right=0;align=left;spacingLeft=2;overflow=hidden;fontSize=11;" vertex="1" parent="62">
          <mxGeometry width="46" height="22" as="geometry" />
        </mxCell>
        <mxCell id="65" value="PK" style="shape=partialRectangle;connectable=0;fillColor=none;top=0;left=0;bottom=0;right=0;align=left;spacingLeft=2;overflow=hidden;fontSize=11;" vertex="1" parent="62">
          <mxGeometry width="22" height="22" as="geometry" />
        </mxCell>
        <mxCell id="66" style="shape=tableRow;horizontal=0;startSize=0;swimlaneHead=0;swimlaneBody=0;fillColor=none;collapsible=0;dropTarget=0;points=[[0,0.5],[1,0.5]];portConstraint=eastwest;top=0;left=0;right=0;bottom=0;" vertex="1" parent="61">
          <mxGeometry y="43" width="104" height="22" as="geometry" />
        </mxCell>
        <mxCell id="67" value="string" style="shape=partialRectangle;connectable=0;fillColor=none;top=0;left=0;bottom=0;right=0;align=left;spacingLeft=2;overflow=hidden;fontSize=11;" vertex="1" parent="66">
          <mxGeometry width="36" height="22" as="geometry" />
        </mxCell>
        <mxCell id="68" value="nombre" style="shape=partialRectangle;connectable=0;fillColor=none;top=0;left=0;bottom=0;right=0;align=left;spacingLeft=2;overflow=hidden;fontSize=11;" vertex="1" parent="66">
          <mxGeometry width="46" height="22" as="geometry" />
        </mxCell>
        <mxCell id="69" value="" style="shape=partialRectangle;connectable=0;fillColor=none;top=0;left=0;bottom=0;right=0;align=left;spacingLeft=2;overflow=hidden;fontSize=11;" vertex="1" parent="66">
          <mxGeometry width="22" height="22" as="geometry" />
        </mxCell>
        <mxCell id="70" style="shape=tableRow;horizontal=0;startSize=0;swimlaneHead=0;swimlaneBody=0;fillColor=none;collapsible=0;dropTarget=0;points=[[0,0.5],[1,0.5]];portConstraint=eastwest;top=0;left=0;right=0;bottom=0;" vertex="1" parent="61">
          <mxGeometry y="65" width="104" height="22" as="geometry" />
        </mxCell>
        <mxCell id="71" value="string" style="shape=partialRectangle;connectable=0;fillColor=none;top=0;left=0;bottom=0;right=0;align=left;spacingLeft=2;overflow=hidden;fontSize=11;" vertex="1" parent="70">
          <mxGeometry width="36" height="22" as="geometry" />
        </mxCell>
        <mxCell id="72" value="tipo" style="shape=partialRectangle;connectable=0;fillColor=none;top=0;left=0;bottom=0;right=0;align=left;spacingLeft=2;overflow=hidden;fontSize=11;" vertex="1" parent="70">
          <mxGeometry width="46" height="22" as="geometry" />
        </mxCell>
        <mxCell id="73" value="" style="shape=partialRectangle;connectable=0;fillColor=none;top=0;left=0;bottom=0;right=0;align=left;spacingLeft=2;overflow=hidden;fontSize=11;" vertex="1" parent="70">
          <mxGeometry width="22" height="22" as="geometry" />
        </mxCell>
        <mxCell id="74" value="RESERVA_HABITACION" style="shape=table;startSize=25;container=1;collapsible=0;childLayout=tableLayout;fixedRows=1;rowLines=1;fontStyle=1;align=center;resizeLast=1;" vertex="1" parent="1">
          <mxGeometry x="139" y="532" width="146" height="68" as="geometry" />
        </mxCell>
        <mxCell id="75" style="shape=tableRow;horizontal=0;startSize=0;swimlaneHead=0;swimlaneBody=0;fillColor=none;collapsible=0;dropTarget=0;points=[[0,0.5],[1,0.5]];portConstraint=eastwest;top=0;left=0;right=0;bottom=0;" vertex="1" parent="74">
          <mxGeometry y="22" width="146" height="22" as="geometry" />
        </mxCell>
        <mxCell id="76" value="int" style="shape=partialRectangle;connectable=0;fillColor=none;top=0;left=0;bottom=0;right=0;align=left;spacingLeft=2;overflow=hidden;fontSize=11;" vertex="1" parent="75">
          <mxGeometry width="18" height="22" as="geometry" />
        </mxCell>
        <mxCell id="77" value="id_reserva" style="shape=partialRectangle;connectable=0;fillColor=none;top=0;left=0;bottom=0;right=0;align=left;spacingLeft=2;overflow=hidden;fontSize=11;" vertex="1" parent="75">
          <mxGeometry width="106" height="22" as="geometry" />
        </mxCell>
        <mxCell id="78" value="FK" style="shape=partialRectangle;connectable=0;fillColor=none;top=0;left=0;bottom=0;right=0;align=left;spacingLeft=2;overflow=hidden;fontSize=11;" vertex="1" parent="75">
          <mxGeometry width="22" height="22" as="geometry" />
        </mxCell>
        <mxCell id="79" style="shape=tableRow;horizontal=0;startSize=0;swimlaneHead=0;swimlaneBody=0;fillColor=none;collapsible=0;dropTarget=0;points=[[0,0.5],[1,0.5]];portConstraint=eastwest;top=0;left=0;right=0;bottom=0;" vertex="1" parent="74">
          <mxGeometry y="43" width="146" height="22" as="geometry" />
        </mxCell>
        <mxCell id="80" value="int" style="shape=partialRectangle;connectable=0;fillColor=none;top=0;left=0;bottom=0;right=0;align=left;spacingLeft=2;overflow=hidden;fontSize=11;" vertex="1" parent="79">
          <mxGeometry width="18" height="22" as="geometry" />
        </mxCell>
        <mxCell id="81" value="numero_habitacion" style="shape=partialRectangle;connectable=0;fillColor=none;top=0;left=0;bottom=0;right=0;align=left;spacingLeft=2;overflow=hidden;fontSize=11;" vertex="1" parent="79">
          <mxGeometry width="106" height="22" as="geometry" />
        </mxCell>
        <mxCell id="82" value="FK" style="shape=partialRectangle;connectable=0;fillColor=none;top=0;left=0;bottom=0;right=0;align=left;spacingLeft=2;overflow=hidden;fontSize=11;" vertex="1" parent="79">
          <mxGeometry width="22" height="22" as="geometry" />
        </mxCell>
        <mxCell id="83" value="hace" style="curved=1;startArrow=ERmandOne;startSize=10;;endArrow=ERzeroToMany;endSize=10;;exitX=0;exitY=0.7;entryX=0.5;entryY=0;" edge="1" parent="1" source="2" target="31">
          <mxGeometry relative="1" as="geometry">
            <Array as="points">
              <mxPoint x="88" y="248" />
            </Array>
          </mxGeometry>
        </mxCell>
        <mxCell id="84" value="incluye" style="curved=1;startArrow=ERmandOne;startSize=10;;endArrow=ERoneToMany;endSize=10;;exitX=0.5;exitY=1;entryX=0.15;entryY=0;" edge="1" parent="1" source="31" target="74">
          <mxGeometry relative="1" as="geometry">
            <Array as="points">
              <mxPoint x="88" y="482" />
            </Array>
          </mxGeometry>
        </mxCell>
        <mxCell id="85" value="pertenece" style="curved=1;startArrow=ERmandOne;startSize=10;;endArrow=ERzeroToMany;endSize=10;;exitX=0.49;exitY=1;entryX=0.84;entryY=0;" edge="1" parent="1" source="52" target="74">
          <mxGeometry relative="1" as="geometry">
            <Array as="points">
              <mxPoint x="335" y="482" />
            </Array>
          </mxGeometry>
        </mxCell>
        <mxCell id="86" value="contrata" style="curved=1;startArrow=ERmandOne;startSize=10;;endArrow=ERzeroToMany;endSize=10;;exitX=0.49;exitY=1;entryX=0;entryY=0.14;" edge="1" parent="1" source="2" target="61">
          <mxGeometry relative="1" as="geometry">
            <Array as="points">
              <mxPoint x="377" y="248" />
            </Array>
          </mxGeometry>
        </mxCell>
        <mxCell id="87" value="incluye" style="curved=1;startArrow=ERmandOne;startSize=10;;endArrow=ERzeroToMany;endSize=10;;exitX=0.69;exitY=0;entryX=0.99;entryY=0.75;" edge="1" parent="1" source="61" target="2">
          <mxGeometry relative="1" as="geometry">
            <Array as="points">
              <mxPoint x="616" y="248" />
            </Array>
          </mxGeometry>
        </mxCell>
      </root>
    </mxGraphModel>
  </diagram>
</mxfile>
